<svg width="15" height="15" viewBox="0 0 15 15" fill="none" xmlns="http://www.w3.org/2000/svg">
<path d="M8.04065 1.87382C7.79979 1.45873 7.20035 1.45873 6.95948 1.87382L5.2632 4.79714C5.14422 5.00219 4.93856 5.14212 4.70415 5.17753L1.5252 5.65767C0.991275 5.73831 0.803988 6.41244 1.2198 6.75694L3.58799 8.71896C3.8072 8.90057 3.91027 9.18705 3.85702 9.4667L3.23754 12.7199C3.13962 13.2342 3.67948 13.6338 4.1427 13.3898L7.13608 11.8137C7.36391 11.6937 7.63622 11.6937 7.86405 11.8137L10.8574 13.3898C11.3207 13.6338 11.8605 13.2342 11.7626 12.7199L11.1431 9.4667C11.0899 9.18705 11.1929 8.90057 11.4122 8.71896L13.7803 6.75694C14.1961 6.41245 14.0089 5.73831 13.4749 5.65767L10.296 5.17753C10.0616 5.14212 9.85592 5.00219 9.73693 4.79714L8.04065 1.87382Z" fill="#A7A7A7"/>
</svg>
