<svg width="26" height="23" viewBox="0 0 26 23" fill="none" xmlns="http://www.w3.org/2000/svg">
<g id="icon &#226;&#128;&#148; &#208;&#186;&#208;&#190;&#208;&#191;&#208;&#184;&#209;&#143; &#226;&#128;&#148; &#208;&#186;&#208;&#190;&#208;&#191;&#208;&#184;&#209;&#143; 1">
<path id="Vector_2" fill-rule="evenodd" clip-rule="evenodd" d="M1.00065 8.49917C0.979919 7.03049 1.45535 5.59918 2.34726 4.44508C3.23918 3.29099 4.49338 2.48425 5.8997 2.16005C7.30602 1.83586 8.77899 2.0139 10.0718 2.66435C11.3646 3.31481 12.3986 4.39814 13.0006 5.73281C13.6041 4.39369 14.6424 3.30748 15.9404 2.65729C17.2384 2.0071 18.7168 1.8327 20.1263 2.1635C21.5358 2.49429 22.7903 3.31004 23.6782 4.47323C24.5661 5.63642 25.0332 7.0759 25.0006 8.54901C24.9291 10.4285 24.2881 12.2393 23.1658 13.7328C22.0431 15.2871 20.7227 16.6825 19.2392 17.8823C17.3827 19.4018 15.3879 20.737 13.282 21.8699L13.0006 21.9322L12.7193 21.7827C10.6134 20.6498 8.61863 19.3146 6.76212 17.7951C5.2786 16.5952 3.95817 15.1998 2.83551 13.6456C1.72027 12.1624 1.07971 10.3657 1.00065 8.49917Z" stroke="black" stroke-width="1.3"/>
</g>
</svg>
