<svg width="21" height="21" viewBox="0 0 21 21" fill="none" xmlns="http://www.w3.org/2000/svg">
<path d="M10.0207 19.8436C4.60609 19.8436 0.197754 15.4353 0.197754 10.0207C0.197754 4.60609 4.60609 0.197754 10.0207 0.197754C15.4353 0.197754 19.8436 4.60609 19.8436 10.0207C19.8436 15.4353 15.4353 19.8436 10.0207 19.8436ZM10.0207 1.63525C5.39192 1.63525 1.63525 5.4015 1.63525 10.0207C1.63525 14.6398 5.39192 18.4061 10.0207 18.4061C14.6494 18.4061 18.4061 14.6398 18.4061 10.0207C18.4061 5.4015 14.6494 1.63525 10.0207 1.63525Z" fill="black"/>
<path d="M20.0832 20.802C19.9011 20.802 19.719 20.7349 19.5753 20.5911L17.6586 18.6745C17.3807 18.3966 17.3807 17.9365 17.6586 17.6586C17.9365 17.3807 18.3966 17.3807 18.6745 17.6586L20.5911 19.5753C20.8691 19.8532 20.8691 20.3132 20.5911 20.5911C20.4474 20.7349 20.2653 20.802 20.0832 20.802Z" fill="black"/>
</svg>
