<svg width="43" height="43" viewBox="0 0 43 43" fill="none" xmlns="http://www.w3.org/2000/svg">
<path d="M29.9208 34.006H13.0792C12.3267 34.006 11.4846 33.4148 11.2337 32.6981L3.81624 11.9506C2.75916 8.97643 3.99541 8.06268 6.53957 9.89018L13.5271 14.8889C14.6917 15.6952 16.0175 15.2831 16.5192 13.9752L19.6725 5.57227C20.6758 2.88477 22.3421 2.88477 23.3454 5.57227L26.4987 13.9752C27.0004 15.2831 28.3262 15.6952 29.4729 14.8889L36.0304 10.2127C38.8254 8.20602 40.1692 9.22727 39.0225 12.4702L31.7842 32.7339C31.5154 33.4148 30.6733 34.006 29.9208 34.006Z" stroke="black" stroke-width="1.5" stroke-linecap="round" stroke-linejoin="round"/>
<path d="M11.6458 39.4165H31.3541" stroke="black" stroke-width="1.5" stroke-linecap="round" stroke-linejoin="round"/>
<path d="M17.0208 25.0835H25.9791" stroke="black" stroke-width="1.5" stroke-linecap="round" stroke-linejoin="round"/>
</svg>
