<svg width="43" height="43" viewBox="0 0 43 43" fill="none" xmlns="http://www.w3.org/2000/svg">
<path d="M21.5 25.0835H23.2916C25.2625 25.0835 26.875 23.471 26.875 21.5002V3.5835H10.75C8.06247 3.5835 5.7154 5.07056 4.49707 7.25639" stroke="black" stroke-width="1.5" stroke-linecap="round" stroke-linejoin="round"/>
<path d="M3.58325 30.4585C3.58325 33.4327 5.98409 35.8335 8.95825 35.8335H10.7499C10.7499 33.8627 12.3624 32.2502 14.3333 32.2502C16.3041 32.2502 17.9166 33.8627 17.9166 35.8335H25.0833C25.0833 33.8627 26.6958 32.2502 28.6666 32.2502C30.6374 32.2502 32.2499 33.8627 32.2499 35.8335H34.0416C37.0158 35.8335 39.4166 33.4327 39.4166 30.4585V25.0835H34.0416C33.0562 25.0835 32.2499 24.2772 32.2499 23.2918V17.9168C32.2499 16.9314 33.0562 16.1252 34.0416 16.1252H36.3528L33.2891 10.7681C32.6441 9.65726 31.4616 8.9585 30.1716 8.9585H26.8749V21.5002C26.8749 23.471 25.2624 25.0835 23.2916 25.0835H21.4999" stroke="black" stroke-width="1.5" stroke-linecap="round" stroke-linejoin="round"/>
<path d="M14.3333 39.4167C16.3124 39.4167 17.9167 37.8124 17.9167 35.8333C17.9167 33.8543 16.3124 32.25 14.3333 32.25C12.3543 32.25 10.75 33.8543 10.75 35.8333C10.75 37.8124 12.3543 39.4167 14.3333 39.4167Z" stroke="black" stroke-width="1.5" stroke-linecap="round" stroke-linejoin="round"/>
<path d="M28.6666 39.4167C30.6456 39.4167 32.2499 37.8124 32.2499 35.8333C32.2499 33.8543 30.6456 32.25 28.6666 32.25C26.6876 32.25 25.0833 33.8543 25.0833 35.8333C25.0833 37.8124 26.6876 39.4167 28.6666 39.4167Z" stroke="black" stroke-width="1.5" stroke-linecap="round" stroke-linejoin="round"/>
<path d="M39.4167 21.5V25.0833H34.0417C33.0562 25.0833 32.25 24.2771 32.25 23.2917V17.9167C32.25 16.9312 33.0562 16.125 34.0417 16.125H36.3529L39.4167 21.5Z" stroke="black" stroke-width="1.5" stroke-linecap="round" stroke-linejoin="round"/>
<path d="M3.58325 14.3335H14.3333" stroke="black" stroke-width="1.5" stroke-linecap="round" stroke-linejoin="round"/>
<path d="M3.58325 19.7085H10.7499" stroke="black" stroke-width="1.5" stroke-linecap="round" stroke-linejoin="round"/>
<path d="M3.58325 25.0835H7.16659" stroke="black" stroke-width="1.5" stroke-linecap="round" stroke-linejoin="round"/>
</svg>
