<svg width="43" height="43" viewBox="0 0 43 43" fill="none" xmlns="http://www.w3.org/2000/svg">
<path d="M34.0416 16.1252C34.0416 18.7231 33.2712 21.106 31.9453 23.0948C30.0103 25.9614 26.9466 27.986 23.3812 28.5056C22.772 28.6131 22.1449 28.6668 21.4999 28.6668C20.8549 28.6668 20.2278 28.6131 19.6187 28.5056C16.0533 27.986 12.9895 25.9614 11.0545 23.0948C9.72867 21.106 8.95825 18.7231 8.95825 16.1252C8.95825 9.19141 14.5662 3.5835 21.4999 3.5835C28.4337 3.5835 34.0416 9.19141 34.0416 16.1252Z" stroke="black" stroke-width="1.5" stroke-linecap="round" stroke-linejoin="round"/>
<path d="M38.0729 33.0919L35.1166 33.7906C34.4537 33.9519 33.9341 34.4536 33.7908 35.1165L33.1637 37.7502C32.8233 39.1836 30.9958 39.6136 30.0462 38.4848L21.4999 28.6665L12.9537 38.5027C12.0041 39.6315 10.1766 39.2015 9.83619 37.7681L9.2091 35.1344C9.04785 34.4715 8.52827 33.9519 7.88327 33.8086L4.92702 33.1098C3.56535 32.7873 3.0816 31.0852 4.06702 30.0998L11.0545 23.1123C12.9895 25.979 16.0533 28.0036 19.6187 28.5232C20.2279 28.6307 20.8549 28.6844 21.4999 28.6844C22.1449 28.6844 22.772 28.6307 23.3812 28.5232C26.9466 28.0036 30.0104 25.979 31.9454 23.1123L38.9329 30.0998C39.9183 31.0673 39.4345 32.7694 38.0729 33.0919Z" stroke="black" stroke-width="1.5" stroke-linecap="round" stroke-linejoin="round"/>
<path d="M22.5393 10.714L23.5964 12.8282C23.7397 13.1148 24.1159 13.4015 24.4564 13.4553L26.3734 13.7777C27.5918 13.9748 27.8784 14.8707 27.0005 15.7486L25.5134 17.2356C25.2626 17.4865 25.1193 17.9703 25.2089 18.3286L25.6389 20.174C25.9793 21.6253 25.2089 22.1986 23.9189 21.4281L22.1272 20.3711C21.8047 20.174 21.2672 20.174 20.9447 20.3711L19.153 21.4281C17.863 22.1806 17.0926 21.6253 17.433 20.174L17.863 18.3286C17.9347 17.9882 17.8093 17.4865 17.5584 17.2356L16.0714 15.7486C15.1934 14.8707 15.4801 13.9927 16.6984 13.7777L18.6155 13.4553C18.938 13.4015 19.3143 13.1148 19.4576 12.8282L20.5147 10.714C21.0343 9.56734 21.9659 9.56734 22.5393 10.714Z" stroke="black" stroke-width="1.5" stroke-linecap="round" stroke-linejoin="round"/>
</svg>
