<svg width="20" height="20" viewBox="0 0 20 20" fill="none" xmlns="http://www.w3.org/2000/svg">
<path fill-rule="evenodd" clip-rule="evenodd" d="M10 0C4.47715 0 0 4.47715 0 10C0 15.5228 4.47715 20 10 20C15.5228 20 20 15.5228 20 10C20 4.47715 15.5228 0 10 0ZM7.80137 4.69889C8.37026 4.673 8.55204 4.66667 10.0005 4.66667H9.99883C11.4477 4.66667 11.6289 4.673 12.1977 4.69889C12.7655 4.72489 13.1533 4.81478 13.4933 4.94667C13.8444 5.08278 14.1411 5.26501 14.4378 5.56168C14.7344 5.85812 14.9167 6.15568 15.0533 6.50646C15.1844 6.84558 15.2744 7.23314 15.3011 7.80092C15.3267 8.36982 15.3333 8.5516 15.3333 10.0001C15.3333 11.4485 15.3267 11.6299 15.3011 12.1987C15.2744 12.7663 15.1844 13.154 15.0533 13.4932C14.9167 13.8439 14.7344 14.1414 14.4378 14.4379C14.1414 14.7345 13.8443 14.9172 13.4936 15.0534C13.1543 15.1853 12.7663 15.2752 12.1985 15.3012C11.6296 15.3271 11.4484 15.3334 9.99983 15.3334C8.55149 15.3334 8.36982 15.3271 7.80092 15.3012C7.23325 15.2752 6.84558 15.1853 6.50624 15.0534C6.15568 14.9172 5.85812 14.7345 5.56179 14.4379C5.26523 14.1414 5.083 13.8439 4.94667 13.4931C4.81489 13.154 4.725 12.7664 4.69889 12.1986C4.67311 11.6297 4.66667 11.4485 4.66667 10.0001C4.66667 8.5516 4.67333 8.36971 4.69878 7.80081C4.72433 7.23325 4.81433 6.84558 4.94656 6.50635C5.08323 6.15568 5.26545 5.85812 5.56212 5.56168C5.85857 5.26512 6.15613 5.08289 6.50691 4.94667C6.84602 4.81478 7.23358 4.72489 7.80137 4.69889Z" fill="white"/>
<path fill-rule="evenodd" clip-rule="evenodd" d="M9.52224 5.6278C9.61514 5.62765 9.71508 5.6277 9.82293 5.62775L10.0007 5.6278C11.4247 5.6278 11.5935 5.63291 12.1558 5.65847C12.6758 5.68224 12.9581 5.76913 13.1461 5.84213C13.3949 5.9388 13.5724 6.05436 13.7589 6.24103C13.9456 6.4277 14.0612 6.60548 14.1581 6.85437C14.2311 7.04215 14.3181 7.32437 14.3417 7.84438C14.3673 8.40661 14.3728 8.5755 14.3728 9.99884C14.3728 11.4222 14.3673 11.5911 14.3417 12.1533C14.318 12.6733 14.2311 12.9555 14.1581 13.1433C14.0614 13.3922 13.9456 13.5694 13.7589 13.756C13.5723 13.9427 13.3951 14.0582 13.1461 14.1549C12.9583 14.2282 12.6758 14.3149 12.1558 14.3387C11.5936 14.3642 11.4247 14.3698 10.0007 14.3698C8.57656 14.3698 8.40778 14.3642 7.84555 14.3387C7.32555 14.3147 7.04332 14.2278 6.85521 14.1548C6.60632 14.0581 6.42854 13.9426 6.24187 13.7559C6.0552 13.5692 5.93964 13.3919 5.84275 13.1429C5.76975 12.9551 5.68275 12.6729 5.65908 12.1529C5.63353 11.5906 5.62842 11.4217 5.62842 9.99751C5.62842 8.57327 5.63353 8.40527 5.65908 7.84304C5.68286 7.32304 5.76975 7.04081 5.84275 6.85281C5.93942 6.60392 6.0552 6.42614 6.24187 6.23947C6.42854 6.0528 6.60632 5.93725 6.85521 5.84036C7.04321 5.76702 7.32555 5.68035 7.84555 5.65647C8.33756 5.63424 8.52823 5.62758 9.52224 5.62646V5.6278ZM12.8476 6.51336C12.4943 6.51336 12.2076 6.7997 12.2076 7.15315C12.2076 7.50648 12.4943 7.79315 12.8476 7.79315C13.2009 7.79315 13.4876 7.50648 13.4876 7.15315C13.4876 6.79981 13.2009 6.51314 12.8476 6.51314V6.51336ZM7.26177 10.0001C7.26177 8.48753 8.48805 7.26121 10.0006 7.26115C11.5131 7.26115 12.7392 8.48749 12.7392 10.0001C12.7392 11.5126 11.5133 12.7384 10.0007 12.7384C8.48811 12.7384 7.26177 11.5126 7.26177 10.0001Z" fill="white"/>
<path d="M10.0005 8.22217C10.9822 8.22217 11.7782 9.01807 11.7782 9.99996C11.7782 10.9818 10.9822 11.7778 10.0005 11.7778C9.01855 11.7778 8.22266 10.9818 8.22266 9.99996C8.22266 9.01807 9.01855 8.22217 10.0005 8.22217Z" fill="white"/>
</svg>
