<svg width="40" height="40" viewBox="0 0 40 40" fill="none" xmlns="http://www.w3.org/2000/svg">
<path fill-rule="evenodd" clip-rule="evenodd" d="M20 0C8.9543 0 0 8.9543 0 20C0 31.0457 8.9543 40 20 40C31.0457 40 40 31.0457 40 20C40 8.9543 31.0457 0 20 0ZM15.6027 9.39778C16.7405 9.346 17.1041 9.33333 20.001 9.33333H19.9977C22.8955 9.33333 23.2577 9.346 24.3955 9.39778C25.5311 9.44978 26.3066 9.62956 26.9866 9.89334C27.6889 10.1656 28.2822 10.53 28.8755 11.1234C29.4689 11.7162 29.8333 12.3114 30.1067 13.0129C30.3689 13.6912 30.5489 14.4663 30.6022 15.6018C30.6533 16.7396 30.6667 17.1032 30.6667 20.0001C30.6667 22.897 30.6533 23.2597 30.6022 24.3975C30.5489 25.5326 30.3689 26.308 30.1067 26.9864C29.8333 27.6877 29.4689 28.2829 28.8755 28.8758C28.2829 29.4691 27.6886 29.8344 26.9873 30.1069C26.3086 30.3707 25.5326 30.5504 24.397 30.6024C23.2593 30.6542 22.8968 30.6669 19.9997 30.6669C17.103 30.6669 16.7396 30.6542 15.6018 30.6024C14.4665 30.5504 13.6912 30.3707 13.0125 30.1069C12.3114 29.8344 11.7162 29.4691 11.1236 28.8758C10.5305 28.2829 10.166 27.6877 9.89334 26.9862C9.62978 26.308 9.45 25.5328 9.39778 24.3973C9.34622 23.2595 9.33333 22.897 9.33333 20.0001C9.33333 17.1032 9.34667 16.7394 9.39756 15.6016C9.44867 14.4665 9.62867 13.6912 9.89312 13.0127C10.1665 12.3114 10.5309 11.7162 11.1242 11.1234C11.7171 10.5302 12.3123 10.1658 13.0138 9.89334C13.692 9.62956 14.4672 9.44978 15.6027 9.39778Z" fill="black"/>
<path fill-rule="evenodd" clip-rule="evenodd" d="M19.044 11.2527C19.2298 11.2524 19.4297 11.2525 19.6454 11.2526L20.0009 11.2527C22.8489 11.2527 23.1865 11.2629 24.3111 11.314C25.3512 11.3616 25.9156 11.5353 26.2916 11.6813C26.7894 11.8747 27.1443 12.1058 27.5174 12.4791C27.8907 12.8525 28.1219 13.208 28.3156 13.7058C28.4616 14.0814 28.6356 14.6458 28.683 15.6858C28.7341 16.8103 28.7452 17.1481 28.7452 19.9948C28.7452 22.8415 28.7341 23.1792 28.683 24.3037C28.6354 25.3437 28.4616 25.9082 28.3156 26.2837C28.1223 26.7815 27.8907 27.1359 27.5174 27.5091C27.1441 27.8824 26.7896 28.1135 26.2916 28.3068C25.9161 28.4535 25.3512 28.6268 24.3111 28.6744C23.1867 28.7255 22.8489 28.7366 20.0009 28.7366C17.1526 28.7366 16.8151 28.7255 15.6906 28.6744C14.6506 28.6264 14.0862 28.4526 13.7099 28.3066C13.2121 28.1133 12.8566 27.8822 12.4832 27.5088C12.1099 27.1355 11.8788 26.7808 11.685 26.2828C11.539 25.9073 11.365 25.3428 11.3177 24.3028C11.2666 23.1783 11.2563 22.8406 11.2563 19.9921C11.2563 17.1436 11.2666 16.8076 11.3177 15.6832C11.3652 14.6431 11.539 14.0787 11.685 13.7027C11.8784 13.2049 12.1099 12.8493 12.4832 12.476C12.8566 12.1027 13.2121 11.8716 13.7099 11.6778C14.0859 11.5311 14.6506 11.3578 15.6906 11.31C16.6746 11.2656 17.056 11.2522 19.044 11.25V11.2527ZM25.6947 13.0238C24.988 13.0238 24.4147 13.5965 24.4147 14.3034C24.4147 15.01 24.988 15.5834 25.6947 15.5834C26.4014 15.5834 26.9747 15.01 26.9747 14.3034C26.9747 13.5967 26.4014 13.0234 25.6947 13.0234V13.0238ZM14.523 19.9972C14.523 16.9721 16.9756 14.5195 20.0007 14.5194C23.0258 14.5194 25.4778 16.9721 25.4778 19.9972C25.4778 23.0223 23.026 25.4739 20.0009 25.4739C16.9757 25.4739 14.523 23.0223 14.523 19.9972Z" fill="black"/>
<path d="M20.0009 16.4453C21.9645 16.4453 23.5565 18.0371 23.5565 20.0009C23.5565 21.9645 21.9645 23.5565 20.0009 23.5565C18.0371 23.5565 16.4453 21.9645 16.4453 20.0009C16.4453 18.0371 18.0371 16.4453 20.0009 16.4453Z" fill="black"/>
</svg>
