<svg width="148" height="55" viewBox="0 0 148 55" fill="none" xmlns="http://www.w3.org/2000/svg">
<g clip-path="url(#clip0_391_2714)">
<path d="M19.1887 42.0145C19.1887 50.353 16.4181 53.9585 10.2158 53.9585C8.69092 53.9585 6.41899 53.8308 4.69328 52.2386C2.82507 50.5136 1.80191 46.951 1.79004 46.3444L0 49.2316C0.321593 49.909 1.78113 51.9792 2.73502 52.8481C5.19793 55.1018 8.3911 54.9991 10.0931 54.9991C17.655 54.9991 21.8485 50.6513 21.8485 41.9547V11.7256H19.1887V42.0145Z" fill="black"/>
<path d="M138.042 11.6797H135.535V55.0001H138.042V11.6797Z" fill="black"/>
<path d="M129.806 52.7294L107.654 11.6797H106.174H105.101V12.2354V55.0001H106.174V14.2287L128.18 55.0001H129.806H130.88V54.7187V11.6797H129.806V52.7294Z" fill="black"/>
<path d="M97.9393 11.6797H97.5346L82.6612 52.884L67.7908 11.6797H65.7138H64.9152H64.6401V55.0001H65.7138V13.8925L80.5555 55.0001H83.0402L83.055 54.9602L83.2341 54.4653L97.9393 13.7339V55.0001H100.446V11.6797H98.6805H97.9393Z" fill="black"/>
<path d="M146.536 54.702C147.846 54.0415 148.377 52.4354 147.722 51.1147C147.066 49.794 145.474 49.2588 144.164 49.9193C142.854 50.5798 142.323 52.1859 142.978 53.5066C143.633 54.8273 145.226 55.3625 146.536 54.702Z" fill="black"/>
<path d="M43.1816 11.6797H42.0001L41.8715 12.0339L26.3608 55.0001H27.5423L30.1487 47.78C32.1792 45.1512 36.9625 40.1419 44.7362 38.0409C47.1516 37.3884 49.2503 37.548 51.1106 37.6418L57.3822 55.0001H60.0539L44.4096 11.6797H43.1816ZM31.0096 45.3936L42.4623 13.668L50.6683 36.4047C40.3981 36.1234 34.0553 41.7152 31.0096 45.3936Z" fill="black"/>
<path d="M48.0826 6.02886C49.3877 4.27497 48.6268 1.279 48.0826 0C45.4742 6.1386 41.5597 7.673 39.929 7.673C42.1039 7.85558 46.7784 7.78175 48.0826 6.02886Z" fill="black"/>
</g>
<defs>
<clipPath id="clip0_391_2714">
<rect width="148" height="55" fill="white"/>
</clipPath>
</defs>
</svg>
