<?xml version="1.0" encoding="utf-8"?><svg viewBox="0 0 39 39" xmlns="http://www.w3.org/2000/svg" xmlns:xlink="http://www.w3.org/1999/xlink"><style>:root>svg{display:none}:root>svg:target{display:block}</style><svg viewBox="0 0 10 7" id="arrow-down" xmlns="http://www.w3.org/2000/svg"><path d="M.469 1.32l.86-.797 3.85 4.305L9.032.523l.86.797L5.18 6.437.469 1.32z"/></svg><svg viewBox="0 0 39 39" id="btn-arrow" xmlns="http://www.w3.org/2000/svg"><circle cx="19.5" cy="19.5" r="19" transform="rotate(180 19.5 19.5)"/><path d="M17 14l6 6-6 6"/></svg><svg viewBox="0 0 21 23" id="cut" xmlns="http://www.w3.org/2000/svg"><path d="M14.056 8.944V5.66c0-2.42-1.717-4.381-3.834-4.381S6.39 3.239 6.39 5.658v3.286"/><path d="M1.278 7.667h17.889l-1.193 14.055H2.47L1.278 7.667z"/></svg><svg viewBox="0 0 17 17" id="download" xmlns="http://www.w3.org/2000/svg"><path d="M6.374 15.58h4.25c3.542 0 4.959-1.416 4.959-4.958v-4.25c0-3.541-1.417-4.958-4.959-4.958h-4.25c-3.541 0-4.958 1.417-4.958 4.958v4.25c0 3.542 1.417 4.959 4.958 4.959z"/><path d="M6.375 8.148L8.5 10.273l2.125-2.125M8.5 10.276V4.609m-4.25 7.086a13.42 13.42 0 008.5 0"/></svg><svg viewBox="0 0 26 23" id="favorites" xmlns="http://www.w3.org/2000/svg"><path clip-rule="evenodd" d="M1 8.5a6.483 6.483 0 011.347-4.055A6.275 6.275 0 015.9 2.16a6.184 6.184 0 014.172.504A6.352 6.352 0 0113 5.733a6.352 6.352 0 012.94-3.076 6.183 6.183 0 014.185-.494 6.276 6.276 0 013.552 2.31A6.484 6.484 0 0125 8.549a9.214 9.214 0 01-1.835 5.184 21.606 21.606 0 01-3.927 4.15 37.325 37.325 0 01-5.957 3.987l-.281.062-.282-.15a37.325 37.325 0 01-5.957-3.987 21.61 21.61 0 01-3.926-4.15A9.215 9.215 0 011 8.5z"/></svg><svg viewBox="0 0 23 23" id="filter" xmlns="http://www.w3.org/2000/svg"><circle cx="4.792" cy="17.251" r="1.917"/><path d="M9.584 17.25l4.643-.013 4.644-.013"/><circle cx="4.792" cy="5.751" r="1.917"/><path d="M9.584 5.751l4.643-.013 4.644-.013"/><circle cx="17.913" cy="11.5" r="1.917" transform="rotate(180 17.913 11.5)"/><path d="M12.459 11.5l-4.313.004-4.313.004"/></svg><svg viewBox="0 0 14 18" id="location" xmlns="http://www.w3.org/2000/svg"><g clip-path="url(#ga)"><path d="M13 7c0 3.314-6 10-6 10S1 10.314 1 7a6 6 0 1112 0z"/><path d="M7 9.5a2.5 2.5 0 100-5 2.5 2.5 0 000 5z"/></g><defs><clipPath id="ga"><path d="M0 0h14v18H0z"/></clipPath></defs></svg><svg viewBox="0 0 18 18" id="mail" xmlns="http://www.w3.org/2000/svg"><rect x="2.25" y="3.75" width="13.5" height="10.5" rx="2"/><path d="M4.5 6.473l3.39 2.26a2 2 0 002.22 0l3.39-2.26"/></svg><svg viewBox="0 0 17 17" id="phone" xmlns="http://www.w3.org/2000/svg"><path d="M5.44 1.593c-.847-.847-2.257-.769-2.871.26C1.739 3.244 1 4.97 1 6.699c0 2.155 1.356 3.514 2.758 4.919.224.225.45.45.67.68.165.172.328.345.49.518C6.432 14.42 7.92 16 10.303 16a9.26 9.26 0 005.197-1.586c.904-.61.883-1.879.113-2.65l-1.19-1.189a1.81 1.81 0 00-2.558 0 1.81 1.81 0 01-2.56 0L6.93 8.201a1.81 1.81 0 010-2.559 1.81 1.81 0 000-2.559l-1.49-1.49z"/></svg><svg viewBox="0 0 15 15" id="rate-star" xmlns="http://www.w3.org/2000/svg"><path d="M8.04 1.874a.625.625 0 00-1.08 0L5.262 4.797a.781.781 0 01-.559.38l-3.179.48a.625.625 0 00-.305 1.1l2.368 1.962a.78.78 0 01.269.748l-.62 3.253a.625.625 0 00.906.67l2.993-1.576c.228-.12.5-.12.728 0l2.993 1.576a.625.625 0 00.906-.67l-.62-3.253a.781.781 0 01.27-.748l2.367-1.962a.625.625 0 00-.305-1.1l-3.179-.48a.781.781 0 01-.56-.38L8.042 1.874z"/></svg><svg viewBox="0 0 21 21" id="search" xmlns="http://www.w3.org/2000/svg"><path d="M10.02 19.844c-5.414 0-9.822-4.409-9.822-9.823C.198 4.606 4.606.198 10.02.198c5.414 0 9.823 4.408 9.823 9.823 0 5.414-4.409 9.823-9.823 9.823zm0-18.209c-4.628 0-8.385 3.767-8.385 8.386s3.757 8.385 8.386 8.385c4.628 0 8.385-3.766 8.385-8.385 0-4.62-3.757-8.386-8.385-8.386zm10.063 19.167a.71.71 0 01-.508-.21l-1.916-1.918a.723.723 0 010-1.015.723.723 0 011.015 0l1.917 1.916a.723.723 0 010 1.016.71.71 0 01-.508.211z"/></svg><svg viewBox="0 0 13 18" id="sort" xmlns="http://www.w3.org/2000/svg"><g clip-path="url(#la)"><path d="M2.857 14.714V1m0 0L.571 3.286M2.857 1l2.286 2.286m4.571 0V17m0 0L12 14.714M9.714 17l-2.286-2.286"/></g><defs><clipPath id="la"><path d="M0 0h13v18H0z"/></clipPath></defs></svg><svg viewBox="0 0 22 23" id="user" xmlns="http://www.w3.org/2000/svg"><g clip-path="url(#ma)" stroke-width="1.3"><path d="M11.473 12.177a5.412 5.412 0 100-10.824 5.412 5.412 0 000 10.824zM2.003 23c0-4.483 4.24-8.118 9.47-8.118 5.231 0 9.471 3.635 9.471 8.118"/></g><defs><clipPath id="ma"><path d="M0 0h21.647v23H0z"/></clipPath></defs></svg></svg>